<svg xmlns="http://www.w3.org/2000/svg" width="1336" height="64" fill="none" viewBox="0 0 1336 64">
  <path fill="#0075FF" d="m0 6.4 16.083 4.267c16.084 4.266 48.25 12.8 80.417 12.8 32.166 0 64.333-8.534 96.5-5.334 32.166 3.2 64.333 18.134 96.499 24.534 32.167 6.4 64.333 4.266 96.5-3.2 32.167-7.467 64.333-20.267 96.5-18.134 32.166 2.134 64.333 19.2 96.5 20.267 32.166 1.067 64.333-13.867 96.499-21.333 32.167-7.467 64.333-7.467 96.5 0 32.167 7.466 64.333 22.4 96.5 21.333 32.166-1.067 64.333-18.133 96.499-23.467 32.167-5.333 64.333 1.067 96.503 6.4 32.16 5.334 64.33 9.6 96.5 10.667 32.16 1.067 64.33-1.067 96.5-1.067 32.16 0 64.33 2.134 96.5 4.267 32.16 2.133 64.33 4.267 96.5-1.067C1479.66 32 1511.83 19.2 1544 13.867c32.16-5.334 64.33-3.2 96.5-1.067 32.16 2.133 64.33 4.267 96.5 2.133 32.16-2.133 64.33-8.533 96.5-5.333 32.16 3.2 64.33 16 96.49 17.067 32.17 1.066 64.34-9.6 96.5-13.867 32.17-4.267 64.34-2.133 96.5-3.2 32.17-1.067 64.34-5.333 96.5-7.467C2251.66 0 2283.83 0 2299.91 0h16.08v64H0V6.4Z"/>
</svg>
