<svg width="32" height="32" viewBox="0 0 32 32" fill="none" xmlns="http://www.w3.org/2000/svg">
<path d="M5.675 22.125C4.18611 19.613 3.66531 16.6439 4.21039 13.7752C4.75546 10.9064 6.32891 8.33528 8.63535 6.54441C10.9418 4.75355 13.8226 3.86614 16.737 4.04878C19.6513 4.23143 22.3988 5.47156 24.4636 7.53637C26.5284 9.60118 27.7686 12.3487 27.9512 15.263C28.1339 18.1774 27.2465 21.0582 25.4556 23.3647C23.6647 25.6711 21.0936 27.2446 18.2248 27.7896C15.3561 28.3347 12.387 27.8139 9.875 26.325V26.325L5.725 27.5C5.55497 27.5497 5.3747 27.5528 5.20307 27.5089C5.03145 27.465 4.87479 27.3757 4.74953 27.2505C4.62426 27.1252 4.535 26.9686 4.4911 26.7969C4.4472 26.6253 4.45027 26.445 4.5 26.275L5.675 22.125Z" stroke="#222222" stroke-width="2" stroke-linecap="round" stroke-linejoin="round"/>
<path d="M19.0125 23C17.6967 23.0033 16.3932 22.7466 15.177 22.2446C13.9607 21.7425 12.8556 21.0052 11.9252 20.0748C10.9948 19.1444 10.2574 18.0393 9.75544 16.823C9.25343 15.6068 8.9967 14.3033 9 12.9875C9.00331 12.0614 9.37352 11.1744 10.0295 10.5207C10.6856 9.86702 11.5739 9.49999 12.5 9.5V9.5C12.6528 9.49878 12.8031 9.53877 12.9351 9.61576C13.0671 9.69275 13.1759 9.80389 13.25 9.9375L14.7125 12.4875C14.7995 12.6425 14.8441 12.8177 14.8419 12.9954C14.8397 13.1732 14.7908 13.3472 14.7 13.5L13.525 15.4625C14.1268 16.8014 15.1986 17.8731 16.5375 18.475L18.5 17.3C18.6528 17.2092 18.8268 17.1603 19.0046 17.1581C19.1823 17.1559 19.3575 17.2005 19.5125 17.2875L22.0625 18.75C22.1961 18.8241 22.3072 18.9329 22.3842 19.0649C22.4612 19.1969 22.5012 19.3472 22.5 19.5C22.4967 20.4251 22.1286 21.3115 21.4757 21.9669C20.8227 22.6222 19.9376 22.9934 19.0125 23V23Z" stroke="#222222" stroke-width="2" stroke-linecap="round" stroke-linejoin="round"/>
</svg>
